<svg width="32" height="32" viewBox="0 0 32 32" fill="none" xmlns="http://www.w3.org/2000/svg">
<path fill-rule="evenodd" clip-rule="evenodd" d="M23.6725 21.9945L31.7193 30.0413C32.0125 30.3345 32.0125 30.8086 31.7193 31.1018L31.1018 31.7193C30.8086 32.0125 30.3345 32.0125 30.0413 31.7193L21.9945 23.6725C21.8573 23.529 21.7762 23.3419 21.7762 23.1423V22.506C19.462 24.6394 16.3743 25.9493 12.9747 25.9493C5.80741 25.9493 0 20.1419 0 12.9747C0 5.80741 5.80741 0 12.9747 0C20.1419 0 25.9493 5.80741 25.9493 12.9747C25.9493 16.3743 24.6394 19.462 22.4998 21.7762H23.1423C23.3419 21.7762 23.529 21.8511 23.6725 21.9945ZM1.9961 12.9747C1.9961 19.0441 6.90527 23.9532 12.9747 23.9532C19.0441 23.9532 23.9532 19.0441 23.9532 12.9747C23.9532 6.90526 19.0441 1.9961 12.9747 1.9961C6.90527 1.9961 1.9961 6.90526 1.9961 12.9747Z" fill="black"/>
</svg>
